<svg width="32" height="32" viewBox="0 0 32 32" fill="none" xmlns="http://www.w3.org/2000/svg">
<path d="M21.6875 5.68744C19.587 5.68744 17.6314 6.31925 16 7.40207C14.3686 6.31925 12.413 5.68744 10.3125 5.68744C4.62614 5.68744 0 10.3136 0 16C0 21.6863 4.62621 26.3125 10.3125 26.3125C12.413 26.3125 14.3686 25.6807 16 24.5979C17.6314 25.6806 19.587 26.3125 21.6875 26.3125C27.3739 26.3125 32 21.6863 32 16C32 10.3136 27.3739 5.68744 21.6875 5.68744ZM10.3125 24.4375C5.66002 24.4375 1.87501 20.6524 1.87501 16C1.87501 11.3475 5.66008 7.56245 10.3125 7.56245C11.8183 7.56245 13.2329 7.95938 14.4581 8.65339C12.5562 10.5252 11.3749 13.127 11.3749 16C11.3749 18.8729 12.5562 21.4748 14.4581 23.3466C13.233 24.0406 11.8183 24.4375 10.3125 24.4375ZM17.3244 11.3121H14.6755C15.0544 10.7472 15.4996 10.2304 15.9999 9.77302C16.5004 10.2305 16.9456 10.7472 17.3244 11.3121ZM16 22.2269C15.4996 21.7696 15.0544 21.2528 14.6756 20.6879H17.3245C16.9456 21.2528 16.5004 21.7696 16 22.2269ZM18.2673 18.8129H13.7326C13.5207 18.2156 13.3745 17.5876 13.3022 16.9375H18.6976C18.6255 17.5875 18.4792 18.2156 18.2673 18.8129ZM18.6977 15.0625H13.3023C13.3745 14.4124 13.5208 13.7844 13.7327 13.1871H18.2674C18.4792 13.7844 18.6255 14.4124 18.6977 15.0625ZM21.6875 24.4375C20.1817 24.4375 18.767 24.0406 17.5419 23.3466C19.4438 21.4748 20.6251 18.8729 20.6251 16C20.6251 13.127 19.4438 10.5252 17.5419 8.65339C18.7671 7.95932 20.1817 7.56245 21.6875 7.56245C26.3399 7.56245 30.125 11.3475 30.125 16C30.125 20.6524 26.34 24.4375 21.6875 24.4375Z" fill="black"/>
</svg>
