<svg width="24" height="24" viewBox="0 0 24 24" fill="none" xmlns="http://www.w3.org/2000/svg">
<g clip-path="url(#clip0)">
<path d="M23.1083 0H0.984375C0.466553 0 0.046875 0.419678 0.046875 0.9375C0.046875 3.54822 1.16602 6.04065 3.11737 7.77521L7.22315 11.4245C7.93506 12.0573 8.34339 12.9666 8.34339 13.9193V23.0614C8.34339 23.8085 9.17835 24.2564 9.80072 23.8413L15.3318 20.1541C15.5925 19.9801 15.7493 19.6875 15.7493 19.374V13.9193C15.7493 12.9666 16.1576 12.0573 16.8695 11.4245L20.9751 7.77521C22.9265 6.04065 24.0456 3.54822 24.0456 0.9375C24.0456 0.419678 23.6259 0 23.1083 0ZM19.7294 6.37372L15.6238 10.0232C14.512 11.0116 13.8743 12.4316 13.8743 13.9191V18.8723L10.2182 21.3096V13.9193C10.2182 12.4316 9.58045 11.0116 8.46863 10.0232L4.36304 6.3739C3.04724 5.20404 2.20734 3.60114 1.98248 1.87482H22.11C21.8851 3.60114 21.0454 5.20404 19.7294 6.37372Z" fill="black"/>
</g>
<defs>
<clipPath id="clip0">
<rect width="24" height="24" fill="white"/>
</clipPath>
</defs>
</svg>
