<svg width="39" height="40" viewBox="0 0 39 40" fill="none" xmlns="http://www.w3.org/2000/svg">
<rect x="0.292603" y="0.767456" width="38.6099" height="38.6099" rx="19.3049" fill="#020002"/>
<path d="M15.5768 20.0724C15.5768 17.8513 17.3769 16.0502 19.5981 16.0502C21.8192 16.0502 23.6202 17.8513 23.6202 20.0724C23.6202 22.2935 21.8192 24.0946 19.5981 24.0946C17.3769 24.0946 15.5768 22.2935 15.5768 20.0724ZM13.4025 20.0724C13.4025 23.4942 16.1763 26.2679 19.5981 26.2679C23.0198 26.2679 25.7936 23.4942 25.7936 20.0724C25.7936 16.6506 23.0198 13.8769 19.5981 13.8769C16.1763 13.8769 13.4025 16.6506 13.4025 20.0724ZM24.591 13.6312C24.5909 13.9176 24.6757 14.1976 24.8347 14.4357C24.9937 14.6739 25.2197 14.8596 25.4842 14.9692C25.7488 15.0789 26.0399 15.1077 26.3207 15.052C26.6016 14.9962 26.8597 14.8584 27.0622 14.656C27.2648 14.4536 27.4028 14.1957 27.4588 13.9148C27.5148 13.634 27.4862 13.3429 27.3767 13.0783C27.2672 12.8137 27.0818 12.5875 26.8437 12.4283C26.6057 12.2691 26.3258 12.1841 26.0394 12.1839H26.0389C25.655 12.1841 25.2869 12.3366 25.0155 12.608C24.744 12.8794 24.5913 13.2474 24.591 13.6312ZM14.7236 29.8935C13.5472 29.8399 12.9078 29.644 12.4829 29.4785C11.9196 29.2591 11.5177 28.998 11.0951 28.5759C10.6725 28.1539 10.4109 27.7524 10.1926 27.1891C10.027 26.7644 9.83101 26.1248 9.77754 24.9485C9.71904 23.6766 9.70736 23.2946 9.70736 20.0725C9.70736 16.8504 9.72001 16.4694 9.77754 15.1966C9.83111 14.0202 10.0285 13.3819 10.1926 12.9559C10.4119 12.3926 10.6731 11.9907 11.0951 11.5681C11.5171 11.1455 11.9186 10.8839 12.4829 10.6656C12.9076 10.5 13.5472 10.304 14.7236 10.2506C15.9954 10.1921 16.3774 10.1804 19.5981 10.1804C22.8187 10.1804 23.2011 10.193 24.474 10.2506C25.6503 10.3041 26.2887 10.5015 26.7146 10.6656C27.2779 10.8839 27.6799 11.1461 28.1025 11.5681C28.525 11.9901 28.7857 12.3926 29.005 12.9559C29.1706 13.3807 29.3665 14.0202 29.42 15.1966C29.4785 16.4694 29.4902 16.8504 29.4902 20.0725C29.4902 23.2946 29.4785 23.6756 29.42 24.9485C29.3664 26.1248 29.1695 26.7642 29.005 27.1891C28.7857 27.7524 28.5245 28.1543 28.1025 28.5759C27.6804 28.9976 27.2779 29.2591 26.7146 29.4785C26.2899 29.6441 25.6503 29.84 24.474 29.8935C23.2022 29.952 22.8201 29.9637 19.5981 29.9637C16.376 29.9637 15.995 29.952 14.7236 29.8935ZM14.6237 8.07991C13.3392 8.1384 12.4615 8.34207 11.695 8.64033C10.9012 8.94834 10.2292 9.36156 9.55765 10.032C8.88613 10.7025 8.47397 11.3755 8.16596 12.1694C7.8677 12.9363 7.66403 13.8136 7.60554 15.098C7.54608 16.3845 7.53247 16.7958 7.53247 20.0724C7.53247 23.349 7.54608 23.7603 7.60554 25.0468C7.66403 26.3314 7.8677 27.2085 8.16596 27.9755C8.47397 28.7688 8.88623 29.4426 9.55765 30.1128C10.2291 30.783 10.9012 31.1956 11.695 31.5045C12.4629 31.8028 13.3392 32.0064 14.6237 32.0649C15.9108 32.1234 16.3214 32.138 19.5981 32.138C22.8747 32.138 23.286 32.1244 24.5724 32.0649C25.857 32.0064 26.7341 31.8028 27.5011 31.5045C28.2944 31.1956 28.9669 30.7833 29.6384 30.1128C30.31 29.4424 30.7213 28.7688 31.0301 27.9755C31.3284 27.2085 31.533 26.3313 31.5906 25.0468C31.6491 23.7594 31.6627 23.349 31.6627 20.0724C31.6627 16.7958 31.6491 16.3845 31.5906 15.098C31.5321 13.8135 31.3284 12.9359 31.0301 12.1694C30.7213 11.376 30.3089 10.7035 29.6384 10.032C28.968 9.3605 28.2944 8.94834 27.5021 8.64033C26.7341 8.34207 25.8569 8.13743 24.5734 8.07991C23.2869 8.02141 22.8756 8.00684 19.599 8.00684C16.3224 8.00684 15.9108 8.02045 14.6237 8.07991Z" fill="#B2D92E" fill-opacity="0.5"/>
</svg>
