<svg width="39" height="40" viewBox="0 0 39 40" fill="none" xmlns="http://www.w3.org/2000/svg">
<rect x="0.195068" y="0.767456" width="38.6099" height="38.6099" rx="19.3049" fill="#020002"/>
<path d="M19.4998 11.0956C21.0165 11.0956 22.2502 12.3294 22.2502 13.8461C22.2502 15.3616 21.0162 16.5953 19.4998 16.5953C17.984 16.5953 16.7499 15.3616 16.7499 13.8461C16.7496 12.3291 17.9843 11.0956 19.4998 11.0956ZM19.4998 20.4867C23.1635 20.4867 26.1429 17.5082 26.1429 13.8461C26.1429 10.1821 23.1638 7.20233 19.4998 7.20233C15.8364 7.20233 12.8566 10.1824 12.8566 13.8461C12.8566 17.5082 15.8364 20.4867 19.4998 20.4867ZM22.1873 25.9053C23.5539 25.5941 24.858 25.0541 26.0446 24.3081C26.4815 24.0333 26.7913 23.5962 26.9058 23.093C27.0204 22.5897 26.9303 22.0616 26.6555 21.6247C26.5196 21.4082 26.3423 21.2206 26.1338 21.0727C25.9253 20.9247 25.6897 20.8193 25.4404 20.7625C25.1912 20.7057 24.9332 20.6986 24.6812 20.7415C24.4292 20.7845 24.1881 20.8767 23.9718 21.013C21.2502 22.724 17.7474 22.7227 15.0281 21.013C14.8118 20.8767 14.5707 20.7845 14.3187 20.7415C14.0667 20.6985 13.8087 20.7056 13.5595 20.7624C13.3103 20.8192 13.0747 20.9246 12.8662 21.0726C12.6578 21.2206 12.4805 21.4082 12.3447 21.6247C12.0698 22.0615 11.9796 22.5895 12.0939 23.0927C12.2083 23.596 12.5179 24.0331 12.9546 24.3081C14.1411 25.0538 15.445 25.5938 16.8113 25.9053L13.0976 29.6196C12.7327 29.9847 12.5277 30.4798 12.5278 30.996C12.5279 31.5122 12.733 32.0072 13.0981 32.3722C13.4632 32.7371 13.9583 32.9421 14.4745 32.942C14.9907 32.9419 15.4857 32.7368 15.8507 32.3717L19.4991 28.7226L23.1498 32.372C23.3303 32.5528 23.5447 32.6962 23.7807 32.794C24.0166 32.8919 24.2696 32.9422 24.525 32.9422C24.7805 32.9422 25.0335 32.8919 25.2694 32.794C25.5054 32.6962 25.7198 32.5528 25.9003 32.372C26.0813 32.1915 26.225 31.9771 26.323 31.741C26.421 31.5049 26.4714 31.2518 26.4714 30.9961C26.4714 30.7405 26.421 30.4874 26.323 30.2513C26.225 30.0152 26.0813 29.8007 25.9003 29.6202L22.1873 25.9053Z" fill="#B2D92E" fill-opacity="0.5"/>
</svg>
