<svg width="32" height="32" viewBox="0 0 32 32" fill="none" xmlns="http://www.w3.org/2000/svg">
<path d="M16 0C7.16343 0 0 7.16343 0 16C0 24.8365 7.16343 31.9999 16 31.9999C24.8365 31.9999 31.9999 24.8365 31.9999 16C31.9906 7.16738 24.8326 0.00944196 16 0ZM16 29.7142C8.42578 29.7142 2.28569 23.5742 2.28569 16C2.28569 8.42578 8.42578 2.28569 16 2.28569C23.5742 2.28569 29.7142 8.42578 29.7142 16C29.7061 23.5708 23.5708 29.7061 16 29.7142Z" fill="black"/>
<path d="M22.7384 15.4902C22.6276 15.268 22.4476 15.0878 22.2253 14.9771L13.0825 10.4056C12.5178 10.1235 11.8314 10.3525 11.5492 10.9171C11.4699 11.0759 11.4286 11.251 11.4287 11.4285V20.5714C11.4284 21.2026 11.9399 21.7145 12.5711 21.7148C12.7486 21.7149 12.9237 21.6736 13.0825 21.5943L22.2253 17.0228C22.7902 16.7413 23.02 16.0551 22.7384 15.4902ZM13.7145 18.7223V13.2777L19.1591 16L13.7145 18.7223Z" fill="black"/>
</svg>
