<svg width="127" height="36" viewBox="0 0 127 36" fill="none" xmlns="http://www.w3.org/2000/svg">
<path d="M95.838 14.0969C95.838 13.3949 95.7231 12.9227 95.4934 12.6802C95.2637 12.4335 94.9531 12.3101 94.566 12.3101C94.1788 12.3101 93.8683 12.425 93.6386 12.6547C93.4088 12.8844 93.294 13.2843 93.294 13.8501V15.5263H90.9712V14.0075C90.9712 12.744 91.2818 11.7698 91.8986 11.0934C92.5155 10.417 93.4301 10.0767 94.634 10.0767C95.838 10.0767 96.7526 10.417 97.3695 11.0934C97.9863 11.7698 98.2969 12.744 98.2969 14.0075C98.2969 14.8541 98.165 15.6241 97.9055 16.309C97.646 16.994 97.3227 17.6193 96.9356 18.1851C96.5484 18.7509 96.1315 19.2699 95.6848 19.7379C95.2381 20.2059 94.8382 20.6525 94.4809 21.078C94.1235 21.5034 93.8385 21.9245 93.6301 22.3415C93.4216 22.7584 93.3535 23.2008 93.4301 23.6602H98.0757V25.8937H90.9712V23.9751C90.9712 23.2178 91.0903 22.5457 91.3286 21.9671C91.5668 21.3843 91.8688 20.8525 92.2304 20.3718C92.592 19.891 92.9877 19.4316 93.4046 19.0104C93.8215 18.585 94.2129 18.1383 94.5745 17.6619C94.9403 17.1854 95.2424 16.6664 95.4806 16.0963C95.7189 15.522 95.838 14.8584 95.838 14.0969Z" class="g-logo-icon"/>
<path d="M97.9824 20.8185L102.449 10.2554H105.129V20.8185H106.291V23.0519H105.129V25.8895H102.671V23.0519H97.9824V20.8185ZM102.671 20.8185V15.0328L100.237 20.8185H102.671Z" class="g-logo-icon"/>
<path d="M5.59411 21.2652L7.27026 10.166H10.6864V25.8001H8.36358V14.5904L6.66616 25.8001H4.34338L2.50983 14.7435V25.8001H0.365723V10.166H3.78183L5.59411 21.2652Z" class="g-logo-text"/>
<path d="M20.1522 25.8001H17.6721L17.2466 22.9626H14.2304L13.805 25.8001H11.5503L14.0517 10.166H17.6465L20.1522 25.8001ZM14.5495 20.844H16.9191L15.7364 12.9397L14.5495 20.844Z" class="g-logo-text"/>
<path d="M27.835 19.9931V22.0692C27.835 23.3327 27.5244 24.2984 26.9076 24.9705C26.2907 25.6427 25.3803 25.9788 24.1721 25.9788C22.9639 25.9788 22.0535 25.6384 21.4367 24.962C20.8156 24.2813 20.5093 23.3114 20.5093 22.0479V13.9182C20.5093 12.6547 20.8156 11.6805 21.4367 11.0041C22.0535 10.3276 22.9639 9.9873 24.1721 9.9873C25.3803 9.9873 26.2907 10.3276 26.9076 11.0041C27.5244 11.6847 27.835 12.6547 27.835 13.9182V15.4369H25.5122V13.7608C25.5122 13.195 25.3973 12.7951 25.1676 12.5653C24.9379 12.3356 24.6273 12.2207 24.2402 12.2207C23.8531 12.2207 23.5425 12.3356 23.3128 12.5653C23.0831 12.7951 22.9682 13.195 22.9682 13.7608V22.2181C22.9682 22.7839 23.0831 23.1795 23.3128 23.4007C23.5425 23.6262 23.8531 23.7368 24.2402 23.7368C24.6273 23.7368 24.9379 23.6262 25.1676 23.4007C25.3973 23.1753 25.5122 22.7839 25.5122 22.2181V19.9846H27.835V19.9931Z" class="g-logo-text"/>
<path d="M36.0967 19.9931V22.0692C36.0967 23.3327 35.7861 24.2984 35.1693 24.9705C34.5524 25.6427 33.6378 25.9788 32.4338 25.9788C31.2257 25.9788 30.3153 25.6384 29.6984 24.962C29.0816 24.2813 28.771 23.3114 28.771 22.0479V13.9182C28.771 12.6547 29.0773 11.6805 29.6984 11.0041C30.3153 10.3276 31.2299 9.9873 32.4338 9.9873C33.6378 9.9873 34.5524 10.3276 35.1693 11.0041C35.7861 11.6847 36.0967 12.6547 36.0967 13.9182V15.4369H33.7739V13.7608C33.7739 13.195 33.6591 12.7951 33.4293 12.5653C33.1996 12.3356 32.889 12.2207 32.5019 12.2207C32.1148 12.2207 31.8042 12.3356 31.5745 12.5653C31.3448 12.7951 31.2299 13.195 31.2299 13.7608V22.2181C31.2299 22.7839 31.3448 23.1795 31.5745 23.4007C31.8042 23.6262 32.1148 23.7368 32.5019 23.7368C32.889 23.7368 33.1996 23.6262 33.4293 23.4007C33.6591 23.1753 33.7739 22.7839 33.7739 22.2181V19.9846H36.0967V19.9931Z" class="g-logo-text"/>
<path d="M45.5977 25.6341H43.1175L42.6921 22.7966H39.6801L39.2547 25.6341H37L39.5015 10H43.1005L45.5977 25.6341ZM39.9907 20.678H42.3603L41.1776 12.7737L39.9907 20.678Z" class="g-logo-text"/>
<path d="M49.8336 14.769C49.8336 15.4964 49.9952 16.0112 50.3143 16.309C50.6333 16.6068 51.0758 16.7557 51.6416 16.7557V10.166H54.0962V16.7557C54.6621 16.7557 55.1045 16.6068 55.4236 16.309C55.7426 16.0112 55.9043 15.4964 55.9043 14.769V12.4249C55.8873 11.7528 56.1085 11.2082 56.5637 10.7828C57.0189 10.3574 57.623 10.1532 58.3845 10.1702H59.4352V12.4036H59.2778C59.0821 12.4036 58.9162 12.4036 58.7758 12.4036C58.6355 12.4036 58.5163 12.4377 58.4185 12.5057C58.3206 12.5738 58.2526 12.6844 58.2058 12.8418C58.1632 12.9992 58.1377 13.2332 58.1377 13.548V14.552C58.1377 16.1601 57.6017 17.2151 56.5296 17.7214C57.155 17.9766 57.5804 18.3893 57.8144 18.9636C58.0441 19.5379 58.159 20.2313 58.159 21.0524V22.435C58.159 22.7498 58.1803 22.9838 58.2271 23.1369C58.2696 23.2943 58.3419 23.405 58.4398 23.473C58.5376 23.5411 58.6567 23.5751 58.7971 23.5751C58.9375 23.5751 59.1077 23.5751 59.2991 23.5751H59.4352V25.8086H58.41C57.6485 25.8256 57.0486 25.6214 56.602 25.196C56.1553 24.7705 55.9298 24.226 55.9298 23.5538V20.9843C55.9298 20.2526 55.7639 19.7421 55.4406 19.4443C55.113 19.1465 54.6663 18.9976 54.1005 18.9976V25.8086H51.6458V18.9976C51.08 18.9976 50.6333 19.1465 50.3058 19.4443C49.9782 19.7421 49.8123 20.2569 49.8123 20.9843V23.5538C49.8123 24.226 49.5868 24.7705 49.1401 25.196C48.6934 25.6214 48.0893 25.8256 47.3321 25.8086H46.3026V23.5751H46.4345C46.6259 23.5751 46.7961 23.5751 46.9365 23.5751C47.0769 23.5751 47.196 23.5411 47.2938 23.473C47.3917 23.405 47.464 23.2943 47.5065 23.1369C47.5491 22.9795 47.5746 22.7456 47.5746 22.435V21.0524C47.5746 20.2356 47.6895 19.5379 47.9192 18.9636C48.1489 18.3893 48.5786 17.9766 49.2039 17.7214C48.1319 17.2151 47.5959 16.1601 47.5959 14.552V13.5395C47.5959 13.2247 47.5746 12.9907 47.5278 12.8333C47.481 12.6759 47.4129 12.5653 47.3151 12.4972C47.2172 12.4292 47.0981 12.3951 46.9577 12.3951C46.8173 12.3951 46.6472 12.3951 46.4557 12.3951H46.2983V10.1617H47.3491C48.1106 10.1489 48.7147 10.3531 49.1699 10.7743C49.6251 11.1997 49.8421 11.7443 49.8293 12.4164V14.769H49.8336Z" class="g-logo-text"/>
<path d="M62.9833 16.7557H66.3569V18.9892H62.9833V23.5667H67.2247V25.8001H60.5244V10.166H67.2247V12.3995H62.9833V16.7557Z" class="g-logo-text"/>
<path d="M71.9637 10.166C73.2017 10.166 74.1163 10.4936 74.7204 11.1487C75.3245 11.8039 75.6266 12.7653 75.6266 14.0288V16.0623C75.6266 17.3301 75.3245 18.2872 74.7204 18.9424C74.1163 19.5975 73.1974 19.9251 71.9637 19.9251H70.8023V25.7959H68.3477V10.166H71.9637ZM70.8023 12.3995V17.6917H71.9637C72.3508 17.6917 72.6486 17.5896 72.8571 17.3811C73.0655 17.1726 73.1676 16.7855 73.1676 16.2197V13.8757C73.1676 13.3099 73.0613 12.9227 72.8571 12.7143C72.6486 12.5058 72.3508 12.3995 71.9637 12.3995H70.8023Z" class="g-logo-text"/>
<path d="M78.817 16.5345H80.2932C81.5269 16.5345 82.4458 16.8621 83.0499 17.5172C83.654 18.1724 83.956 19.1338 83.956 20.3973V21.9373C83.956 23.2008 83.654 24.1623 83.0499 24.8174C82.4458 25.4725 81.5269 25.8001 80.2932 25.8001H76.3623V10.166H78.817V16.5345ZM80.2932 23.5667C80.6803 23.5667 80.9781 23.4561 81.1865 23.2434C81.395 23.0264 81.5014 22.6435 81.5014 22.0947V20.2399C81.5014 19.6911 81.395 19.3082 81.1865 19.0913C80.9781 18.8743 80.6803 18.768 80.2932 18.768H78.817V23.5709H80.2932V23.5667ZM84.8494 10.166H87.3083V25.8001H84.8494V10.166Z" class="g-logo-text"/>
<path d="M0.940173 31.9303C0.574314 31.9303 0.259505 31.8665 0 31.7431V31.2581C0.13188 31.3092 0.276523 31.356 0.429673 31.3942C0.582823 31.4325 0.761499 31.4538 0.961445 31.4538C1.34432 31.4538 1.64211 31.3517 1.85057 31.1475C2.05902 30.9433 2.17389 30.637 2.19516 30.2286H0.361605V29.7606H2.1909C2.15687 29.382 2.04626 29.1055 1.85908 28.9268C1.67189 28.7524 1.40388 28.6631 1.04653 28.6631C0.821056 28.6631 0.540283 28.7226 0.208457 28.8417L0.0510513 28.378C0.174422 28.3227 0.323318 28.2717 0.501993 28.2334C0.684923 28.1951 0.863599 28.1738 1.03802 28.1738C1.60383 28.1738 2.02924 28.3355 2.32278 28.6588C2.61632 28.9821 2.76096 29.4458 2.76096 30.0542C2.76096 30.6455 2.60356 31.1092 2.2845 31.4368C1.96543 31.7644 1.51449 31.9303 0.940173 31.9303Z"  class="g-logo-sub-text"/>
<path d="M5.8365 28.2378H6.44059L4.87505 29.9863L6.56821 31.8623H5.92583L4.27096 30.0245V31.8623H3.72217V28.2378H4.27096V29.999L5.8365 28.2378Z"  class="g-logo-sub-text"/>
<path d="M8.6869 31.9304C8.16363 31.9304 7.75523 31.7687 7.4702 31.4454C7.18092 31.1221 7.04053 30.6669 7.04053 30.0755C7.04053 29.4672 7.18517 28.9992 7.47871 28.6674C7.76799 28.3398 8.1849 28.1697 8.72518 28.1697C8.8996 28.1697 9.07403 28.191 9.24845 28.225C9.42287 28.2633 9.559 28.3058 9.65685 28.3569L9.49094 28.8248C9.36756 28.778 9.23568 28.7355 9.0953 28.7057C8.95065 28.6717 8.82303 28.6589 8.71667 28.6589C7.9807 28.6589 7.61059 29.1269 7.61059 30.067C7.61059 30.5137 7.69993 30.8541 7.8786 31.0923C8.05728 31.3305 8.32529 31.4496 8.67839 31.4496C8.98043 31.4496 9.29099 31.3858 9.61005 31.254V31.7389C9.35906 31.8666 9.05276 31.9304 8.6869 31.9304Z"  class="g-logo-sub-text"/>
<path d="M11.0097 31.8623H10.4609V28.2378H13.5027V31.8623H12.9454V28.7143H11.0055V31.8623H11.0097Z"  class="g-logo-sub-text"/>
<path d="M16.1997 31.9304C15.6637 31.9304 15.2425 31.7645 14.932 31.4412C14.6214 31.1136 14.4683 30.6627 14.4683 30.0841C14.4683 29.5013 14.6129 29.0376 14.8979 28.693C15.1872 28.3484 15.5743 28.1782 16.0551 28.1782C16.5103 28.1782 16.8676 28.3271 17.1314 28.6292C17.3951 28.927 17.527 29.3226 17.527 29.8118V30.1607H15.0298C15.0426 30.5861 15.1489 30.9094 15.3531 31.1306C15.5573 31.3518 15.8424 31.4624 16.2125 31.4624C16.6039 31.4624 16.9867 31.3816 17.3696 31.2157V31.7049C17.1739 31.79 16.991 31.8496 16.8208 31.8836C16.6507 31.9134 16.4422 31.9304 16.1997 31.9304ZM16.0466 28.6334C15.7573 28.6334 15.5233 28.727 15.3489 28.9184C15.1745 29.1099 15.0724 29.3694 15.0426 29.7055H16.9357C16.9357 29.3609 16.8591 29.0971 16.706 28.9099C16.5571 28.727 16.3358 28.6334 16.0466 28.6334Z"  class="g-logo-sub-text"/>
<path d="M20.1519 31.9304C19.918 31.9304 19.701 31.8879 19.5053 31.7985C19.3096 31.7092 19.148 31.5773 19.0161 31.3986H18.9778C19.0033 31.6113 19.0161 31.8113 19.0161 31.9985V33.4917H18.4673V28.242H18.914L18.9906 28.7398H19.0161C19.1565 28.5398 19.3224 28.3994 19.5096 28.3101C19.6967 28.2208 19.9137 28.1782 20.1562 28.1782C20.6369 28.1782 21.007 28.3441 21.2708 28.6717C21.5303 28.9993 21.6622 29.463 21.6622 30.0543C21.6622 30.6499 21.5303 31.1136 21.2623 31.4412C20.9943 31.7645 20.6242 31.9304 20.1519 31.9304ZM20.0754 28.6377C19.7053 28.6377 19.4372 28.7398 19.2713 28.944C19.1054 29.1482 19.0203 29.4757 19.0161 29.9224V30.0458C19.0161 30.5563 19.1012 30.9179 19.2713 31.1391C19.4415 31.3603 19.7138 31.4667 20.0881 31.4667C20.3987 31.4667 20.6454 31.3391 20.8241 31.0881C21.0028 30.8371 21.0879 30.484 21.0879 30.0415C21.0879 29.5906 20.9985 29.2418 20.8241 29.0035C20.6454 28.761 20.3944 28.6377 20.0754 28.6377Z"  class="g-logo-sub-text"/>
<path d="M25.0613 28.7099H23.8829V31.8665H23.3341V28.7099H22.1685V28.2419H25.057V28.7099H25.0613Z"  class="g-logo-sub-text"/>
<path d="M26.3247 29.7353H27.3159C27.7753 29.7353 28.1157 29.8203 28.3411 29.9905C28.5624 30.1607 28.673 30.4159 28.673 30.7563C28.673 31.1221 28.5539 31.3944 28.3199 31.5816C28.0859 31.7688 27.7413 31.8623 27.2819 31.8623H25.7759V28.2378H26.3247V29.7353ZM26.3247 30.2117V31.4072H27.2563C27.8392 31.4072 28.1284 31.203 28.1284 30.7946C28.1284 30.5904 28.0604 30.4457 27.9285 30.3521C27.7924 30.2585 27.5626 30.2117 27.2393 30.2117H26.3247ZM29.8259 31.8623H29.2771V28.2378H29.8259V31.8623Z"  class="g-logo-sub-text"/>
<path d="M33.2973 31.8623H32.7485V28.2378H35.7903V31.8623H35.233V28.7143H33.2931V31.8623H33.2973Z"  class="g-logo-sub-text"/>
<path d="M40.083 30.05C40.083 30.6414 39.9341 31.1008 39.6363 31.4326C39.3385 31.7645 38.9301 31.9304 38.4026 31.9304C38.0793 31.9304 37.79 31.8538 37.539 31.7006C37.288 31.5475 37.0923 31.3305 36.9562 31.0455C36.82 30.7605 36.752 30.4286 36.752 30.0458C36.752 29.4544 36.9008 28.995 37.1944 28.6632C37.4922 28.3356 37.9006 28.1697 38.4238 28.1697C38.9301 28.1697 39.3342 28.3398 39.632 28.6759C39.9341 29.0163 40.083 29.4715 40.083 30.05ZM37.322 30.05C37.322 30.5137 37.4156 30.8668 37.5985 31.1093C37.7857 31.3518 38.0537 31.4752 38.4153 31.4752C38.7727 31.4752 39.0492 31.3561 39.2321 31.1136C39.4193 30.8711 39.5129 30.518 39.5129 30.0543C39.5129 29.5948 39.4193 29.2417 39.2321 29.0035C39.045 28.7653 38.7727 28.6461 38.4068 28.6461C38.0495 28.6461 37.7772 28.7653 37.5943 28.9992C37.4156 29.229 37.322 29.5821 37.322 30.05Z"  class="g-logo-sub-text"/>
<path d="M44.686 31.3349L44.7881 31.0286L44.9285 30.6372L45.9112 28.2463H46.6089V31.8624H46.1239V28.8675L46.0601 29.0589L45.8687 29.5651L44.9328 31.8581H44.4733L43.5374 29.5566C43.4225 29.2631 43.3417 29.0334 43.2949 28.8675V31.8624H42.8057V28.2463H43.4778L44.4265 30.5436C44.5201 30.7861 44.6094 31.0498 44.686 31.3349Z"  class="g-logo-sub-text"/>
<path d="M50.0078 31.8623L49.8972 31.3476H49.8717C49.693 31.5731 49.5101 31.7262 49.3314 31.807C49.1527 31.8879 48.9272 31.9262 48.6592 31.9262C48.2976 31.9262 48.0168 31.8326 47.8126 31.6496C47.6084 31.4624 47.5063 31.1987 47.5063 30.8584C47.5063 30.1266 48.0934 29.7438 49.2633 29.7097L49.8802 29.6885V29.463C49.8802 29.178 49.8206 28.9695 49.6972 28.8334C49.5739 28.6972 49.3782 28.6292 49.1102 28.6292C48.8081 28.6292 48.4678 28.7228 48.0849 28.9057L47.9147 28.4845C48.0934 28.3867 48.2891 28.3101 48.5018 28.259C48.7145 28.2037 48.9272 28.1782 49.14 28.1782C49.5739 28.1782 49.8929 28.2718 50.1014 28.4675C50.3098 28.6589 50.412 28.9652 50.412 29.3907V31.8623H50.0078ZM48.7698 31.4752C49.1102 31.4752 49.3824 31.3816 49.5739 31.1944C49.7696 31.0073 49.8674 30.7435 49.8674 30.4074V30.0798L49.3186 30.1054C48.8804 30.1224 48.5699 30.1904 48.3742 30.3096C48.1828 30.4287 48.0849 30.6159 48.0849 30.8711C48.0849 31.0668 48.1445 31.22 48.2636 31.3221C48.387 31.4242 48.5529 31.4752 48.7698 31.4752Z"  class="g-logo-sub-text"/>
<path d="M52.9945 31.9304C52.4712 31.9304 52.0628 31.7687 51.7778 31.4454C51.4885 31.1221 51.3481 30.6669 51.3481 30.0755C51.3481 29.4672 51.4928 28.9992 51.7863 28.6674C52.0799 28.3398 52.4925 28.1697 53.0328 28.1697C53.2072 28.1697 53.3816 28.191 53.5561 28.225C53.7305 28.2633 53.8666 28.3058 53.9645 28.3569L53.7985 28.8248C53.6752 28.778 53.5433 28.7355 53.4029 28.7057C53.2583 28.6717 53.1349 28.6589 53.0243 28.6589C52.2883 28.6589 51.9182 29.1269 51.9182 30.067C51.9182 30.5137 52.0075 30.8541 52.1862 31.0923C52.3649 31.3305 52.6329 31.4496 52.986 31.4496C53.288 31.4496 53.5986 31.3858 53.9134 31.254V31.7389C53.6709 31.8666 53.3646 31.9304 52.9945 31.9304Z"  class="g-logo-sub-text"/>
<path d="M56.2191 31.9304C55.6959 31.9304 55.2875 31.7687 55.0024 31.4454C54.7131 31.1221 54.5728 30.6669 54.5728 30.0755C54.5728 29.4672 54.7174 28.9992 55.0109 28.6674C55.3002 28.3398 55.7171 28.1697 56.2574 28.1697C56.4318 28.1697 56.6063 28.191 56.7807 28.225C56.9551 28.2633 57.0912 28.3058 57.1891 28.3569L57.0189 28.8248C56.8955 28.778 56.7637 28.7355 56.6233 28.7057C56.4786 28.6717 56.351 28.6589 56.2446 28.6589C55.5087 28.6589 55.1386 29.1269 55.1386 30.067C55.1386 30.5137 55.2279 30.8541 55.4066 31.0923C55.5852 31.3305 55.8533 31.4496 56.2064 31.4496C56.5084 31.4496 56.819 31.3858 57.1338 31.254V31.7389C56.8955 31.8666 56.5892 31.9304 56.2191 31.9304Z"  class="g-logo-sub-text"/>
<path d="M60.2223 31.8623L60.116 31.3476H60.0904C59.9118 31.5731 59.7288 31.7262 59.5501 31.807C59.3715 31.8879 59.146 31.9262 58.878 31.9262C58.5206 31.9262 58.2399 31.8326 58.0314 31.6496C57.8272 31.4624 57.7251 31.1987 57.7251 30.8584C57.7251 30.1266 58.3122 29.7438 59.4821 29.7097L60.0989 29.6885V29.463C60.0989 29.178 60.0394 28.9695 59.916 28.8334C59.7926 28.6972 59.5969 28.6292 59.3289 28.6292C59.0269 28.6292 58.6865 28.7228 58.3037 28.9057L58.1335 28.4845C58.3122 28.3867 58.5079 28.3101 58.7206 28.259C58.9333 28.2037 59.146 28.1782 59.3587 28.1782C59.7926 28.1782 60.1117 28.2718 60.3201 28.4675C60.5286 28.6589 60.6307 28.9652 60.6307 29.3907V31.8623H60.2223ZM58.9843 31.4752C59.3247 31.4752 59.5969 31.3816 59.7884 31.1944C59.9841 31.0073 60.0819 30.7435 60.0819 30.4074V30.0798L59.5331 30.1054C59.0949 30.1224 58.7801 30.1904 58.5887 30.3096C58.3973 30.4287 58.2994 30.6159 58.2994 30.8711C58.2994 31.0668 58.359 31.22 58.4781 31.3221C58.6015 31.4242 58.7674 31.4752 58.9843 31.4752Z"  class="g-logo-sub-text"/>
<path d="M63.4127 28.2463H63.9232V30.0033L65.4207 28.2463H66.0248L64.5103 30.0033L66.1524 31.8666H65.5185L63.9232 30.0288V31.8666H63.417V30.0288L61.8259 31.8666H61.1963L62.8342 30.0033L61.3239 28.2463H61.928L63.417 30.0033V28.2463H63.4127Z"  class="g-logo-sub-text"/>
<path d="M68.2754 31.9304C67.7394 31.9304 67.314 31.7645 67.0076 31.4412C66.6971 31.1136 66.5439 30.6627 66.5439 30.0841C66.5439 29.5013 66.6886 29.0376 66.9736 28.693C67.2629 28.3484 67.6458 28.1782 68.1308 28.1782C68.5859 28.1782 68.9433 28.3271 69.2071 28.6292C69.4708 28.927 69.6027 29.3226 69.6027 29.8118V30.1607H67.1055C67.1183 30.5861 67.2246 30.9094 67.4288 31.1306C67.633 31.3518 67.918 31.4624 68.2882 31.4624C68.6795 31.4624 69.0624 31.3816 69.4453 31.2157V31.7049C69.2496 31.79 69.0667 31.8496 68.8965 31.8836C68.7263 31.9134 68.5179 31.9304 68.2754 31.9304ZM68.1265 28.6334C67.8372 28.6334 67.6032 28.727 67.4288 28.9184C67.2544 29.1099 67.1523 29.3694 67.1225 29.7055H69.0199C69.0199 29.3609 68.9433 29.0971 68.7902 28.9099C68.6327 28.727 68.4115 28.6334 68.1265 28.6334Z"  class="g-logo-sub-text"/>
<path d="M72.2319 31.9304C71.9979 31.9304 71.7809 31.8879 71.5852 31.7985C71.3895 31.7092 71.2279 31.5773 71.0918 31.3986H71.0535C71.079 31.6113 71.0918 31.8113 71.0918 31.9985V33.4917H70.543V28.242H70.9897L71.0662 28.7398H71.0918C71.2321 28.5398 71.3981 28.3994 71.5852 28.3101C71.7724 28.2208 71.9894 28.1782 72.2319 28.1782C72.7126 28.1782 73.0827 28.3441 73.3465 28.6717C73.606 28.9993 73.7379 29.463 73.7379 30.0543C73.7379 30.6499 73.606 31.1136 73.338 31.4412C73.07 31.7645 72.6998 31.9304 72.2319 31.9304ZM72.151 28.6377C71.7809 28.6377 71.5129 28.7398 71.347 28.944C71.1811 29.1482 71.096 29.4757 71.0918 29.9224V30.0458C71.0918 30.5563 71.1768 30.9179 71.347 31.1391C71.5172 31.3603 71.7894 31.4667 72.1638 31.4667C72.4744 31.4667 72.7211 31.3391 72.8998 31.0881C73.0785 30.8371 73.1635 30.484 73.1635 30.0415C73.1635 29.5906 73.0742 29.2418 72.8998 29.0035C72.7211 28.761 72.4744 28.6377 72.151 28.6377Z"  class="g-logo-sub-text"/>
<path d="M76.9199 31.8623L76.8093 31.3476H76.7838C76.6051 31.5731 76.4222 31.7262 76.2435 31.807C76.0648 31.8879 75.8393 31.9262 75.5713 31.9262C75.2097 31.9262 74.929 31.8326 74.7248 31.6496C74.5206 31.4624 74.4185 31.1987 74.4185 30.8584C74.4185 30.1266 75.0055 29.7438 76.1754 29.7097L76.7923 29.6885V29.463C76.7923 29.178 76.7285 28.9695 76.6094 28.8334C76.486 28.6972 76.2903 28.6292 76.0223 28.6292C75.7202 28.6292 75.3799 28.7228 74.997 28.9057L74.8269 28.4845C75.0055 28.3867 75.2012 28.3101 75.4139 28.259C75.6266 28.2037 75.8394 28.1782 76.0521 28.1782C76.486 28.1782 76.805 28.2718 77.0135 28.4675C77.222 28.6589 77.3241 28.9652 77.3241 29.3907V31.8623H76.9199ZM75.6819 31.4752C76.0223 31.4752 76.2945 31.3816 76.486 31.1944C76.6817 31.0073 76.7795 30.7435 76.7795 30.4074V30.0798L76.2307 30.1054C75.7925 30.1224 75.4777 30.1904 75.2863 30.3096C75.0949 30.4287 74.997 30.6159 74.997 30.8711C74.997 31.0668 75.0566 31.22 75.1757 31.3221C75.2991 31.4242 75.465 31.4752 75.6819 31.4752Z"  class="g-logo-sub-text"/>
<path d="M80.3403 31.3349L80.4424 31.0286L80.5828 30.6372L81.5655 28.2463H82.2632V31.8624H81.7782V28.8675L81.7144 29.0589L81.523 29.5651L80.5871 31.8581H80.1276L79.1917 29.5566C79.0768 29.2631 78.996 29.0334 78.9492 28.8675V31.8624H78.46V28.2463H79.1321L80.0808 30.5436C80.1744 30.7861 80.2637 31.0498 80.3403 31.3349Z"  class="g-logo-sub-text"/>
<path d="M118.104 9.26416V10.2596H117.109V9.26416H118.104Z" class="g-logo-icon"/>
<path d="M120.125 3.68262C120.644 3.68262 121.031 3.81875 121.286 4.09527C121.542 4.37179 121.665 4.77594 121.665 5.30771V6.1628C121.665 6.69458 121.537 7.09872 121.286 7.37524C121.031 7.65177 120.648 7.7879 120.125 7.7879H119.636V10.2596H118.602V3.68262H120.125ZM119.636 4.62279V6.84773H120.125C120.287 6.84773 120.41 6.80519 120.499 6.71585C120.589 6.62651 120.631 6.46485 120.631 6.22662V5.2439C120.631 5.00567 120.589 4.84401 120.499 4.75467C120.41 4.66533 120.287 4.62279 120.125 4.62279H119.636Z" class="g-logo-icon"/>
<path d="M123.937 9.78737H123.448C122.929 9.78737 122.542 9.65123 122.286 9.37471C122.031 9.09819 121.908 8.69404 121.908 8.16227V5.77568C121.908 5.2439 122.035 4.83975 122.286 4.56323C122.542 4.28671 122.929 4.15058 123.448 4.15058H123.937V3.68262H124.971V4.15058H125.46C125.979 4.15058 126.366 4.28671 126.621 4.56323C126.877 4.83975 127 5.2439 127 5.77568V8.16227C127 8.69404 126.872 9.09819 126.621 9.37471C126.366 9.65123 125.979 9.78737 125.46 9.78737H124.971V10.2553H123.937V9.78737ZM123.448 5.09075C123.286 5.09075 123.158 5.13329 123.073 5.22263C122.984 5.31197 122.941 5.47363 122.941 5.71186V8.23034C122.941 8.46857 122.984 8.63023 123.073 8.71957C123.163 8.8089 123.286 8.85145 123.448 8.85145H123.937V5.095H123.448V5.09075ZM124.971 5.09075V8.84719H125.46C125.622 8.84719 125.749 8.80465 125.834 8.71531C125.924 8.62597 125.966 8.46431 125.966 8.22608V5.71186C125.966 5.47363 125.924 5.31197 125.834 5.22263C125.745 5.13329 125.622 5.09075 125.46 5.09075H124.971Z" class="g-logo-icon"/>
<path d="M111.204 6.30737L108.979 8.53231C111.073 10.8211 112.413 13.799 112.625 17.0875H115.773C115.552 12.9311 113.863 9.17044 111.204 6.30737Z" class="g-logo-icon"/>
<path d="M109.916 5.05239C107.163 2.64878 103.649 1.11302 99.7778 0.853516V4.00161C102.781 4.24835 105.517 5.43527 107.691 7.27732L109.916 5.05239Z" class="g-logo-icon"/>
<path d="M112.621 18.8828C112.153 26.2043 106.065 32.0197 98.6289 32.0197C94.8725 32.0197 91.4607 30.5265 88.9379 28.1144H84.7773C87.9084 32.3813 92.9411 35.1678 98.6289 35.1678C107.801 35.1678 115.297 27.94 115.769 18.8828H112.621Z" class="g-logo-icon"/>
<path d="M88.5041 8.28985C90.9204 5.76712 94.2642 4.15054 97.9824 3.98037V0.832275C92.3711 1.04498 87.4363 3.94208 84.4541 8.28985H88.5041Z" class="g-logo-icon"/>
</svg>
