<svg width="39" height="40" viewBox="0 0 39 40" fill="none" xmlns="http://www.w3.org/2000/svg">
<rect x="0.0975342" y="0.767456" width="38.6099" height="38.6099" rx="19.3049" fill="#020002"/>
<path fill-rule="evenodd" clip-rule="evenodd" d="M31.6819 14.0667C31.8609 13.4701 31.6819 13.0316 30.8303 13.0316H28.0143C27.2983 13.0316 26.9684 13.4104 26.7894 13.8281C26.7894 13.8281 25.3573 17.3185 23.3286 19.5858C22.6723 20.2421 22.374 20.4507 22.0159 20.4507C21.8369 20.4507 21.5779 20.2421 21.5779 19.6455V14.0667C21.5779 13.3506 21.3701 13.0316 20.7733 13.0316H16.3482C15.9009 13.0316 15.6318 13.3639 15.6318 13.6789C15.6318 14.3577 16.6459 14.5142 16.7505 16.4234V20.5703C16.7505 21.4795 16.5864 21.6444 16.2283 21.6444C15.2737 21.6444 12.9518 18.1382 11.5744 14.1264C11.3044 13.3466 11.0337 13.0316 10.314 13.0316H7.49806C6.6935 13.0316 6.53259 13.4104 6.53259 13.8281C6.53259 14.574 7.4874 18.2733 10.9778 23.1659C13.305 26.5068 16.5832 28.3183 19.5665 28.3183C21.3566 28.3183 21.5779 27.916 21.5779 27.223V24.6977C21.5779 23.8932 21.7474 23.7327 22.314 23.7327C22.732 23.7327 23.4479 23.9414 25.1187 25.5524C27.028 27.4614 27.3425 28.3183 28.4166 28.3183H31.2326C32.0371 28.3183 32.4394 27.916 32.2073 27.1221C31.9535 26.3308 31.0419 25.1831 29.8322 23.8222C29.1759 23.0464 28.1913 22.211 27.8933 21.7935C27.4755 21.2564 27.5948 21.0179 27.8933 20.5408C27.8933 20.5408 31.3239 15.7078 31.6819 14.0669V14.0667Z" fill="#B2D92E" fill-opacity="0.5"/>
</svg>
