<svg width="39" height="40" viewBox="0 0 39 40" fill="none" xmlns="http://www.w3.org/2000/svg">
<rect x="0.390137" y="0.767456" width="38.6099" height="38.6099" rx="19.3049" fill="#020002"/>
<path fill-rule="evenodd" clip-rule="evenodd" d="M29.1368 12.1411C30.1704 12.4194 30.9854 13.2344 31.2636 14.268C31.7805 16.1564 31.7606 20.0921 31.7606 20.0921C31.7606 20.0921 31.7606 24.0079 31.2636 25.8962C30.9854 26.9299 30.1704 27.7448 29.1368 28.0231C27.2484 28.52 19.695 28.52 19.695 28.52C19.695 28.52 12.1615 28.52 10.2533 28.0032C9.2197 27.725 8.40473 26.91 8.12645 25.8764C7.62952 24.0079 7.62952 20.0722 7.62952 20.0722C7.62952 20.0722 7.62952 16.1564 8.12645 14.268C8.40473 13.2344 9.23958 12.3995 10.2533 12.1213C12.1417 11.6243 19.695 11.6243 19.695 11.6243C19.695 11.6243 27.2484 11.6243 29.1368 12.1411ZM23.5711 20.0722L17.2899 23.6899V16.4545L23.5711 20.0722Z" fill="#B2D92E" fill-opacity="0.5"/>
</svg>
